<svg xmlns="http://www.w3.org/2000/svg" width="17.448" height="18.975" viewBox="0 0 17.448 18.975"><defs><style>.a{fill:#1bb40e;}</style></defs><path class="a" d="M578.164,500.414a1.442,1.442,0,0,0-1.988.457l-.014.022-.011.023-1.33,3.562s-.511-.008-.511-.012l1.294-5.72a1.442,1.442,0,1,0-2.839-.505l-.758,5.073-.25.058-.437-6.405a1.449,1.449,0,0,0-1.436-1.322c-.039,0-.08,0-.12,0a1.444,1.444,0,0,0-1.318,1.556l.547,6.59a4.533,4.533,0,0,1-.006.524,1.827,1.827,0,0,1-.185-.37,1.467,1.467,0,0,0-.066-.163l-1.628-5.306a1.442,1.442,0,1,0-2.756.847l1.653,5.387c.659,2.154.4,2.744.3,2.874a.153.153,0,0,1-.141.069.814.814,0,0,1-.448-.193l-1.961-1.541a1.442,1.442,0,0,0-1.856,2.208l3.383,2.861c.8,1.411,1.567,3.626,6.036,3.626s4.459-5.6,4.44-6.161l2.873-6.078A1.445,1.445,0,0,0,578.164,500.414Z" transform="translate(-561.391 -495.645)"/></svg>