<svg xmlns="http://www.w3.org/2000/svg" width="26.576" height="28.23" viewBox="0 0 26.576 28.23"><defs><style>.a{fill:#ced2d6;}</style></defs><path class="a" d="M17.305,14.047a3.617,3.617,0,1,1,4.876,3.386v15.79H19.663V17.433a3.619,3.619,0,0,1-2.358-3.386Zm12.437,8.82a.789.789,0,0,0,1.147-.032,13.289,13.289,0,0,0,0-17.576A.787.787,0,1,0,29.71,6.3a11.714,11.714,0,0,1,0,15.492A.784.784,0,0,0,29.742,22.867Zm-17.64,0a.784.784,0,0,0,.033-1.074,11.714,11.714,0,0,1,0-15.492.787.787,0,1,0-1.18-1.042,13.289,13.289,0,0,0,0,17.576.789.789,0,0,0,1.147.032Zm3.338-3.338a.792.792,0,0,0,.043-1.065,7,7,0,0,1,0-8.835.792.792,0,0,0-.043-1.065.782.782,0,0,0-1.154.042,8.57,8.57,0,0,0,0,10.881.782.782,0,0,0,1.154.042Zm10.965,0a.782.782,0,0,0,1.154-.042,8.57,8.57,0,0,0,0-10.881A.782.782,0,0,0,26.4,8.564a.792.792,0,0,0-.043,1.065,7,7,0,0,1,0,8.835.792.792,0,0,0,.043,1.065Z" transform="translate(-7.634 -4.993)"/></svg>