<svg id="Layer_1" data-name="Layer 1" xmlns="http://www.w3.org/2000/svg" xmlns:xlink="http://www.w3.org/1999/xlink" viewBox="0 0 66.8 65.4"><defs><style>.cls-1{fill:url(#radial-gradient);}.cls-2{fill:url(#radial-gradient-2);}.cls-3{fill:url(#radial-gradient-3);}.cls-4{fill:#eb2027;}.cls-5{fill:#f69223;}.cls-6{fill:#f16825;}.cls-7{fill:#ffc119;}.cls-8{fill:#ea2629;}</style><radialGradient id="radial-gradient" cx="33.4" cy="-886.09" r="33.2" gradientTransform="matrix(1, 0, 0, -0.23, 0, -149.03)" gradientUnits="userSpaceOnUse"><stop offset="0" stop-opacity="0.4"/><stop offset="0.52" stop-color="#231f20" stop-opacity="0.15"/><stop offset="1" stop-opacity="0"/></radialGradient><radialGradient id="radial-gradient-2" cx="43.4" cy="46.9" r="38" gradientTransform="matrix(1, 0, 0, -1, 0, 68)" gradientUnits="userSpaceOnUse"><stop offset="0" stop-color="#fff"/><stop offset="0.27" stop-color="#fcfcfc"/><stop offset="0.48" stop-color="#f2f2f2"/><stop offset="0.68" stop-color="#e1e1e1"/><stop offset="0.86" stop-color="#c9c9c9"/><stop offset="1" stop-color="#b3b3b3"/></radialGradient><radialGradient id="radial-gradient-3" cx="42.7" cy="46.4" r="11.9" gradientTransform="matrix(1, 0, 0, -1, 0, 68)" gradientUnits="userSpaceOnUse"><stop offset="0" stop-color="#ea7375"/><stop offset="1" stop-color="#ea2629"/></radialGradient></defs><title>Artboard 1</title><ellipse class="cls-1" cx="33.4" cy="57.2" rx="33.4" ry="8.2"/><ellipse class="cls-2" cx="34" cy="28.7" rx="28.6" ry="28.7"/><path class="cls-3" d="M52.3,22.7c.2,4.5-3.8,9-10.9,8.7a16.45,16.45,0,0,1-4.2,3.8c-1.8,1.2-3.9,1.7-5.8,2.7,1.2-1.2,4.6-4.3,4.5-7.9-10.1-5.3-6.5-13.9,1-16.3a12.91,12.91,0,0,1,4-.6c8.1.4,11.3,6.1,11.4,9.6"/><path class="cls-4" d="M46.5,2.7a22.62,22.62,0,0,0-2.1-.9c.3.2.4.2.5.3h0A17.11,17.11,0,0,1,40.5.8C40,.7,40,.7,37,0a31.93,31.93,0,0,1,9.5,2.7h0"/><path class="cls-5" d="M7.5,22.5a13.47,13.47,0,0,1-2,4.7c-.1,0-.1.1-.1,1.2A21.19,21.19,0,0,1,5.8,24a21.81,21.81,0,0,1,1.1-4.4c.3-.7.6-1.7.9-2.4l.1-.1a12.16,12.16,0,0,1-.4,5.4"/><path class="cls-6" d="M23,32.4c-3.5-1.5-3.6-1.5-4.8-2.9-6.1,3.9-10.4-.6-9-6.8.6-2.6,2.8-7.2,7.5-7.4,5.9.3,7.5,7.4,4.1,11.8-1.1,1.2.4,3.6,2.2,5.3h0"/><path class="cls-7" d="M29.7,25.6c-.3,1.7-2.8,2.9-5.1,2h0a3.77,3.77,0,0,0-.6,2.7,17.23,17.23,0,0,1-.7-2.1,3.55,3.55,0,0,1-.1-.7v-1l-.1-.1a1.91,1.91,0,0,1-.1-1.6,3.35,3.35,0,0,1,3.3-2c2.8.1,3.6,1.7,3.4,2.8"/><path class="cls-5" d="M30.2,56.5a29.52,29.52,0,0,1-5.3-1.7c-.5,1.9-10.5-3.6-13.6-8.9-1.5-2.6.3-2.8.9-2.8,4.2.3,10.3,4.8,12.3,10.4.4.6,2.6,1.9,5.7,3h0"/><path class="cls-7" d="M41.1,53.3a14.13,14.13,0,0,1-3,1.9,3.33,3.33,0,0,0-.6.3,4.62,4.62,0,0,1-1,.7,4.18,4.18,0,0,1-1,.4c.5-.2.5-.5.6-.8h-.2a3.39,3.39,0,0,1-2.3-.5,5.3,5.3,0,0,1-2.1-2.1c-.7-1.5-.1-2.9,1.5-3.9a9.71,9.71,0,0,1,4.8-1.2c5.1.2,5.8,2.9,3.3,5.2"/><path class="cls-5" d="M62.6,31c0-.2,0-.2-1.2-4.1-2.3.1-4.2-6.4-2.5-8.3a.6.6,0,0,1,.6-.3c1.4.2,2.2,3.2,2.3,3.8.5,1.5.8,8.9.8,8.9h0"/><path class="cls-7" d="M40.7,2.7c.9.9.4,1.6-1,1.6A4.46,4.46,0,0,1,38.1,4a3.08,3.08,0,0,1-.6.6c-.3.2-.6.3-.9.5.8-.9.6-1.5.4-1.7-.9-.7-1.2-2.2.2-2.2a5.58,5.58,0,0,1,3.5,1.5"/><path class="cls-6" d="M38.2,10.5c0,.3-.2,1.9-3.4,2.4a3,3,0,0,1-1.2,1.3,8.11,8.11,0,0,1-2.1,1c1.3-1.1,1.4-1.8,1.4-2.4-3.8-.6-3.9-2.8-2.4-4a5.43,5.43,0,0,1,3.4-1c3.2.1,4.3,1.7,4.3,2.7"/><path class="cls-8" d="M28.7,9.8c-1.5,3.5-8.5,5.7-11.1,3.4-2.9,1.4-3.9.5-4.5.1h0a8.41,8.41,0,0,0,4.2-2.7c.9-2,4.5-5,8.3-5.1,3.2.1,3.8,2.5,3.1,4.3"/><path class="cls-5" d="M19.9,5.5a55.76,55.76,0,0,1-6.5,5c-.1.1-.3.1-.4.2s-3.7,3.5-4.6,5.1a33.65,33.65,0,0,1,3.1-4.5.1.1,0,0,0-.1-.1c0-.2,0-.3.4-.7.6-.6,1.3-1.5,1.9-2.1,1-.9,2.3-2,3.3-2.9,1.1-.7,2.6-1.7,3.8-2.3S23.5,2,24.6,1.5a4.91,4.91,0,0,1,1.2-.3c-.1.1-.2.2-.3.2a33.38,33.38,0,0,0-5.6,4.1"/><path class="cls-7" d="M53,11.2c.9,1.8.1,2.5-.3,2.8a3.89,3.89,0,0,1-.3,1.9,10.1,10.1,0,0,1-1.3,1.6,4.71,4.71,0,0,0,.1-3.1c-4.2.3-8.3-4.1-6.1-6.4A2.38,2.38,0,0,1,47,7.3a7.34,7.34,0,0,1,6,3.9"/><path class="cls-6" d="M51.1,5.5a22.85,22.85,0,0,1,3.3,2.9c1,1,2,2.2,2.9,3.3.7,1,1.3,2,1.9,3,.4.7.3.8.2,1s-.3.1-.6-.1c0,.3-.1,1-1.3,1.2a9.51,9.51,0,0,1-1.4.1c-.6-.1-1.2-.3-1.8-.4,1.1-.6,2.8-2,1.2-3.5a111,111,0,0,1-8.7-9.9.1.1,0,0,1,.1-.1,4.41,4.41,0,0,1,1.3.6c.9.5,1.9,1.2,2.9,1.9"/><path class="cls-6" d="M59.8,29.9a4.41,4.41,0,0,1-.8,2.2,6,6,0,0,1-.6.7c-.5.4-1.2.6-1.6,1.2a5,5,0,0,1-.8,1.2c-.4.5-.4.5-2.6,2a6.3,6.3,0,0,0,1.9-3.5c-5.3-1.8-4-6.5-1.2-8a3.78,3.78,0,0,1,2-.5c3.3.2,3.9,3.1,3.7,4.7"/><path class="cls-8" d="M62.4,33.3a21.81,21.81,0,0,1-1.1,4.4c-.5,1.4-1.1,2.8-1.7,4.1s-1.5,2.6-2.3,3.8l-.9,1.2c-.6.7-1.4,1.5-2.1,1.4a19.78,19.78,0,0,1-6.6,4c5.1-3,6-5.1,6-5.1v-.5a20.48,20.48,0,0,1,2.2-8.7c1.9-3.7,4.3-6.4,6-6.7.5.1.9.3.7,1.9-.1,0-.1.1-.2.2"/><path class="cls-7" d="M51.3,45.4a9,9,0,0,1-2.2,1.8l-.6.3c-.4.2-.9.2-1.4.4a1.79,1.79,0,0,0-.7.5,4.61,4.61,0,0,1-1.3.7c-.2.1-.3.2-.4.2a14.58,14.58,0,0,1-1.9.7,7.69,7.69,0,0,0,2.9-2.2c-2-1.3.7-5.2,4.1-5.8.2,0,.5-.1.7-.1,2.6.1,2,2.1.8,3.5"/><path class="cls-6" d="M35.8,44.1c-.1.6-1,3.5-5.9,4.5-.8,1.4-1.5,1.6-3,2.2a3.32,3.32,0,0,0,.7-2.1c-6.8-.7-11.1-6.7-6.9-9.8,1.8-1.3,4.4-1.4,5.4-1.5,6.7.3,10.3,3.7,9.7,6.7"/><path class="cls-8" d="M9.4,33.1A9,9,0,0,1,9.2,35c-.2.7-.8,1.3-.7,2.2a4.48,4.48,0,0,1,.1,1.2,14.77,14.77,0,0,0,.1,2.1c-.3-1.1-.6-2.3-1-3.4-2.2-.2-2.6-8.4-1.7-9.4a.55.55,0,0,1,.5-.2c1.4.2,2.8,3,2.9,5.6"/><path class="cls-5" d="M42.9,55.6a27.87,27.87,0,0,1-7.2,1.6c1.8-.2,1.8-.2,2.7-.9,2.5-1.8,4.7-3.3,7.3-3.5,1.2.1.8.7.4,1a8.69,8.69,0,0,1-3.2,1.8"/></svg>