<svg xmlns="http://www.w3.org/2000/svg" xmlns:xlink="http://www.w3.org/1999/xlink" version="1.1" id="Layer_1" x="0px" y="0px" width="245.5px" height="65.4px" viewBox="0 0 245.5 65.4" style="enable-background:new 0 0 245.5 65.4;" xml:space="preserve">
<style type="text/css">
	.st0{fill:#FFFFFF;}
	.st1{fill:url(#SVGID_1_);}
	.st2{fill:url(#SVGID_2_);}
	.st3{fill:url(#SVGID_3_);}
	.st4{fill:#EB2027;}
	.st5{fill:#F69223;}
	.st6{fill:#F16825;}
	.st7{fill:#FFC119;}
	.st8{fill:#F79420;}
	.st9{fill:#EA2629;}
	.st10{opacity:0.7;}
</style>
<g id="VoiceVoice_4_">
	<path class="st0" d="M82.7 33l-7.1-17.4h4.1l5.1 13l5.1-13h4L86.8 33H82.7z"/>
	<path class="st0" d="M95.2 24.3c0-5 3.4-9.1 8.9-9.1c5.6 0 8.9 4.1 8.9 9.1c0 5-3.4 9.2-8.9 9.2C98.6 33.4 95.2 29.2 95.2 24.3z M109.2 24.3c0-3.1-1.8-5.8-5-5.8c-3.2 0-5 2.7-5 5.8c0 3.1 1.8 5.8 5 5.8C107.4 30.1 109.2 27.4 109.2 24.3z"/>
	<path class="st0" d="M116.5 11.1c0-1.3 1-2.3 2.3-2.3c1.3 0 2.3 1 2.3 2.3c0 1.3-1 2.3-2.3 2.3C117.6 13.5 116.5 12.4 116.5 11.1z M117 33V15.6h3.8V33H117z"/>
	<path class="st0" d="M124.6 24.3c0-5.3 3.7-9.1 9-9.1c3.4 0 5.4 1.4 6.7 3.1l-2.5 2.3c-1-1.4-2.3-2-4-2c-3.1 0-5.3 2.4-5.3 5.8 c0 3.4 2.1 5.8 5.3 5.8c1.7 0 3-0.7 4-2.1l2.5 2.3c-1.2 1.6-3.2 3.1-6.7 3.1C128.3 33.4 124.6 29.5 124.6 24.3z"/>
	<path class="st0" d="M142.5 24.3c0-5 3.7-9.1 8.8-9.1c5.2 0 8.5 4 8.5 9.4v0.9h-13.4c0.3 2.6 2.2 4.8 5.5 4.8c1.7 0 3.7-0.7 5-1.9 l1.7 2.5c-1.8 1.7-4.3 2.6-7.1 2.6C146.4 33.4 142.5 29.8 142.5 24.3z M151.3 18.3c-3.2 0-4.7 2.5-4.9 4.6h9.8 C156.2 20.8 154.8 18.3 151.3 18.3z"/>
	<path class="st0" d="M168.2 33l-7.1-17.4h4.1l5.1 13l5.1-13h4L172.3 33H168.2z"/>
	<path class="st0" d="M180.8 24.3c0-5 3.4-9.1 8.9-9.1c5.6 0 8.9 4.1 8.9 9.1c0 5-3.4 9.2-8.9 9.2C184.1 33.4 180.8 29.2 180.8 24.3 z M194.7 24.3c0-3.1-1.8-5.8-5-5.8c-3.2 0-5 2.7-5 5.8c0 3.1 1.8 5.8 5 5.8C192.9 30.1 194.7 27.4 194.7 24.3z"/>
	<path class="st0" d="M202.1 11.1c0-1.3 1-2.3 2.3-2.3c1.3 0 2.3 1 2.3 2.3c0 1.3-1 2.3-2.3 2.3C203.1 13.5 202.1 12.4 202.1 11.1z M202.5 33V15.6h3.8V33H202.5z"/>
	<path class="st0" d="M210.1 24.3c0-5.3 3.7-9.1 9-9.1c3.4 0 5.4 1.4 6.7 3.1l-2.5 2.3c-1-1.4-2.3-2-4-2c-3.1 0-5.3 2.4-5.3 5.8 c0 3.4 2.1 5.8 5.3 5.8c1.7 0 3-0.7 4-2.1l2.5 2.3c-1.2 1.6-3.2 3.1-6.7 3.1C213.8 33.4 210.1 29.5 210.1 24.3z"/>
	<path class="st0" d="M228.1 24.3c0-5 3.7-9.1 8.8-9.1c5.2 0 8.5 4 8.5 9.4v0.9H232c0.3 2.6 2.2 4.8 5.5 4.8c1.7 0 3.7-0.7 5-1.9 l1.7 2.5c-1.8 1.7-4.3 2.6-7.1 2.6C231.9 33.4 228.1 29.8 228.1 24.3z M236.9 18.3c-3.2 0-4.7 2.5-4.9 4.6h9.8 C241.7 20.8 240.3 18.3 236.9 18.3z"/>
</g>
<g>
	
		<radialGradient id="SVGID_1_" cx="33.4" cy="57.2" r="33.2" gradientTransform="matrix(1 0 0 0.2327 0 43.8516)" gradientUnits="userSpaceOnUse">
		<stop offset="0" style="stop-color:#000000;stop-opacity:0.4"/>
		<stop offset="0.5217" style="stop-color:#231F20;stop-opacity:0.15"/>
		<stop offset="1" style="stop-color:#000000;stop-opacity:0"/>
	</radialGradient>
	<ellipse class="st1" cx="33.4" cy="57.2" rx="33.4" ry="8.2"/>
	<radialGradient id="SVGID_2_" cx="43.4" cy="21.1" r="38" gradientUnits="userSpaceOnUse">
		<stop offset="0" style="stop-color:#FFFFFF"/>
		<stop offset="0.2675" style="stop-color:#FCFCFC"/>
		<stop offset="0.4824" style="stop-color:#F2F2F2"/>
		<stop offset="0.679" style="stop-color:#E1E1E1"/>
		<stop offset="0.8635" style="stop-color:#C9C9C9"/>
		<stop offset="1" style="stop-color:#B3B3B3"/>
	</radialGradient>
	<ellipse class="st2" cx="34" cy="28.7" rx="28.6" ry="28.7"/>
	<radialGradient id="SVGID_3_" cx="42.7" cy="21.6" r="11.9" gradientUnits="userSpaceOnUse">
		<stop offset="0" style="stop-color:#EA7375"/>
		<stop offset="1" style="stop-color:#EA2629"/>
	</radialGradient>
	<path class="st3" d="M52.3 22.7c0.2 4.5-3.8 9-10.9 8.7c-0.4 0.5-1.5 2-4.2 3.8c-1.8 1.2-3.9 1.7-5.8 2.7c1.2-1.2 4.6-4.3 4.5-7.9 c-10.1-5.3-6.5-13.9 1-16.3c1.7-0.5 2.8-0.6 4-0.6C49 13.5 52.2 19.2 52.3 22.7"/>
	<path class="st4" d="M46.5 2.7c-0.1-0.1-0.9-0.4-2.1-0.9C44.7 2 44.8 2 44.9 2.1c0 0 0 0 0 0C43.3 2 42 1.3 40.5 0.8 c-0.5-0.1-0.5-0.1-3.5-0.8C38.8 0.2 42.3 0.8 46.5 2.7C46.5 2.7 46.5 2.7 46.5 2.7"/>
	<path class="st5" d="M7.5 22.5c-0.7 2.7-1.8 4.6-2 4.7c-0.1 0-0.1 0.1-0.1 1.2c0-1.5 0.1-3 0.4-4.4c0.2-1.5 0.6-3 1.1-4.4 c0.3-0.7 0.6-1.7 0.9-2.4l0.1-0.1C8.1 17.5 8.2 19.8 7.5 22.5"/>
	<path class="st6" d="M23 32.4c-3.5-1.5-3.6-1.5-4.8-2.9c-6.1 3.9-10.4-0.6-9-6.8c0.6-2.6 2.8-7.2 7.5-7.4c5.9 0.3 7.5 7.4 4.1 11.8 C19.7 28.3 21.2 30.7 23 32.4C23.1 32.4 23 32.4 23 32.4"/>
	<path class="st7" d="M29.7 25.6c-0.3 1.7-2.8 2.9-5.1 2c0 0 0 0 0 0c-0.5 0.7-0.7 1.5-0.6 2.7c-0.2-0.7-0.6-1.4-0.7-2.1 c0 0-0.1-0.4-0.1-0.7c0-0.5 0-0.8 0-0.9c0 0 0-0.1 0-0.1c0 0-0.1-0.1-0.1-0.1c-0.1-0.2-0.4-0.8-0.1-1.6c0.1-0.2 0.7-1.9 3.3-2 C29.1 22.9 29.9 24.5 29.7 25.6"/>
	<path class="st5" d="M30.2 56.5c-2-0.5-3.2-0.8-5.3-1.7c-0.5 1.9-10.5-3.6-13.6-8.9c-1.5-2.6 0.3-2.8 0.9-2.8 c4.2 0.3 10.3 4.8 12.3 10.4C24.9 54.1 27.1 55.4 30.2 56.5C30.3 56.5 30.2 56.5 30.2 56.5"/>
	<path class="st7" d="M41.1 53.3c-1 0.9-2.4 1.6-3 1.9c-0.2 0.1-0.5 0.2-0.6 0.3c-0.4 0.3-0.7 0.6-1 0.7c-0.4 0.2-0.6 0.3-1 0.4 c0.5-0.2 0.5-0.5 0.6-0.8c-0.1 0-0.1 0-0.2 0c-0.3 0-1.2 0.2-2.3-0.5c-0.9-0.5-1.7-1.3-2.1-2.1c-0.7-1.5-0.1-2.9 1.5-3.9 c1.8-1.1 4-1.2 4.8-1.2C42.9 48.3 43.6 51 41.1 53.3"/>
	<path class="st5" d="M62.6 31c0-0.2 0-0.2-1.2-4.1c-2.3 0.1-4.2-6.4-2.5-8.3c0.2-0.3 0.4-0.3 0.6-0.3c1.4 0.2 2.2 3.2 2.3 3.8 C62.3 23.6 62.6 31 62.6 31C62.6 31.1 62.6 31 62.6 31"/>
	<path class="st7" d="M40.7 2.7c0.9 0.9 0.4 1.6-1 1.6c-0.7 0-1.4-0.2-1.6-0.3c-0.1 0.1-0.2 0.3-0.6 0.6c-0.3 0.2-0.6 0.3-0.9 0.5 c0.8-0.9 0.6-1.5 0.4-1.7c-0.9-0.7-1.2-2.2 0.2-2.2C38.3 1.2 40 1.9 40.7 2.7"/>
	<path class="st6" d="M38.2 10.5c0 0.3-0.2 1.9-3.4 2.4c-0.3 0.6-0.6 0.9-1.2 1.3c-0.6 0.5-1.4 0.7-2.1 1c1.3-1.1 1.4-1.8 1.4-2.4 c-3.8-0.6-3.9-2.8-2.4-4c1.2-1 2.9-1 3.4-1C37.1 7.9 38.2 9.5 38.2 10.5"/>
	<g>
		<g>
			<polyline class="st8" points="12.4,12.3 12.4,12.3 12.4,12.3"/>
			<path class="st9" d="M28.7 9.8c-1.5 3.5-8.5 5.7-11.1 3.4c-2.9 1.4-3.9 0.5-4.5 0.1h0l0 0c2.3-0.6 4.2-2.5 4.2-2.7 c0.9-2 4.5-5 8.3-5.1C28.8 5.6 29.4 8 28.7 9.8"/>
		</g>
	</g>
	<path class="st5" d="M19.9 5.5c-1.7 1.4-4.4 3.8-6.5 5c-0.1 0.1-0.3 0.1-0.4 0.2c0 0-3.7 3.5-4.6 5.1c0.5-0.9 1.3-2.2 3.1-4.5 c0 0 0-0.1-0.1-0.1c0-0.2 0-0.3 0.4-0.7c0.6-0.6 1.3-1.5 1.9-2.1c1-0.9 2.3-2 3.3-2.9c1.1-0.7 2.6-1.7 3.8-2.3 C22 2.6 23.5 2 24.6 1.5c0.7-0.2 0.9-0.3 1.2-0.3c-0.1 0.1-0.2 0.2-0.3 0.2C23.6 2.5 22.5 3.3 19.9 5.5"/>
	<path class="st7" d="M53 11.2c0.9 1.8 0.1 2.5-0.3 2.8c0 0.3 0.1 1-0.3 1.9c-0.3 0.6-0.9 1.1-1.3 1.6c0.4-1.1 0.4-2 0.1-3.1 c-4.2 0.3-8.3-4.1-6.1-6.4c0.6-0.7 1.5-0.7 1.9-0.7C49.9 7.4 52.3 9.6 53 11.2"/>
	<path class="st6" d="M51.1 5.5c1.2 0.9 2.3 1.8 3.3 2.9c1 1 2 2.2 2.9 3.3c0.7 1 1.3 2 1.9 3c0.4 0.7 0.3 0.8 0.2 1 c-0.2 0.1-0.3 0.1-0.6-0.1c0 0.3-0.1 1-1.3 1.2c-0.5 0.1-1.4 0.1-1.4 0.1c-0.6-0.1-1.2-0.3-1.8-0.4c1.1-0.6 2.8-2 1.2-3.5 c-2.2-2-8.5-9.4-8.7-9.9c0 0 0-0.1 0.1-0.1c0.1 0 0.4 0.1 1.3 0.6C49.1 4.1 50.1 4.8 51.1 5.5"/>
	<path class="st6" d="M59.8 29.9c-0.1 1.2-0.7 2.1-0.8 2.2c-0.3 0.4-0.5 0.6-0.6 0.7c-0.5 0.4-1.2 0.6-1.6 1.2 c-0.2 0.5-0.5 0.8-0.8 1.2c-0.4 0.5-0.4 0.5-2.6 2c0.5-0.5 1.7-1.8 1.9-3.5c-5.3-1.8-4-6.5-1.2-8c0.9-0.5 1.6-0.5 2-0.5 C59.4 25.4 60 28.3 59.8 29.9"/>
	<path class="st9" d="M62.4 33.3c-0.2 1.5-0.6 3-1.1 4.4c-0.5 1.4-1.1 2.8-1.7 4.1c-0.7 1.3-1.5 2.6-2.3 3.8 c-0.3 0.4-0.6 0.8-0.9 1.2c-0.6 0.7-1.4 1.5-2.1 1.4c-2.7 2.4-4.8 3.3-6.6 4c5.1-3 6-5.1 6-5.1c0-0.2 0-0.4 0-0.5 c-0.1-1.5 0.5-5.3 2.2-8.7c1.9-3.7 4.3-6.4 6-6.7c0.5 0.1 0.9 0.3 0.7 1.9C62.5 33.1 62.5 33.2 62.4 33.3"/>
	<path class="st7" d="M51.3 45.4c-0.9 1.1-2.1 1.7-2.2 1.8c-0.2 0.1-0.4 0.2-0.6 0.3c-0.4 0.2-0.9 0.2-1.4 0.4 c-0.3 0.1-0.5 0.3-0.7 0.5c-0.2 0.2-0.6 0.4-1.3 0.7c-0.2 0.1-0.3 0.2-0.4 0.2c-0.6 0.3-1.3 0.5-1.9 0.7c1.8-0.9 2.4-1.6 2.9-2.2 c-2-1.3 0.7-5.2 4.1-5.8c0.2 0 0.5-0.1 0.7-0.1C53.1 42 52.5 44 51.3 45.4"/>
	<path class="st6" d="M35.8 44.1c-0.1 0.6-1 3.5-5.9 4.5c-0.8 1.4-1.5 1.6-3 2.2c0.5-0.7 0.7-1.3 0.7-2.1c-6.8-0.7-11.1-6.7-6.9-9.8 c1.8-1.3 4.4-1.4 5.4-1.5C32.8 37.7 36.4 41.1 35.8 44.1"/>
	<path class="st9" d="M9.4 33.1c0 0.2 0 1-0.2 1.9c-0.2 0.7-0.8 1.3-0.7 2.2c0.1 0.4 0.1 0.7 0.1 1.2c0 0.7 0 1.4 0.1 2.1 c-0.3-1.1-0.6-2.3-1-3.4c-2.2-0.2-2.6-8.4-1.7-9.4c0.2-0.2 0.3-0.2 0.5-0.2C7.9 27.7 9.3 30.5 9.4 33.1"/>
	<path class="st5" d="M42.9 55.6c-3 1.2-6.3 1.5-7.2 1.6c1.8-0.2 1.8-0.2 2.7-0.9c2.5-1.8 4.7-3.3 7.3-3.5c1.2 0.1 0.8 0.7 0.4 1 C45.4 54.5 44.3 55.1 42.9 55.6"/>
</g>
<g class="st10">
	<path class="st0" d="M81.3 41.8h-2.1v-1.1h5.4v1.1h-2.1v5.6h-1.2V41.8z"/>
	<path class="st0" d="M86.2 40.7h1.2v2.8h3.2v-2.8h1.2v6.7h-1.2v-2.8h-3.2v2.8h-1.2V40.7z"/>
	<path class="st0" d="M93.8 40.7h4.9v1H95v1.7h3.3v1H95v1.8h3.8v1h-5V40.7z"/>
	<path class="st0" d="M103.5 44L103.5 44c0-1.9 1.4-3.5 3.4-3.5c1.2 0 2 0.4 2.6 1l-0.8 0.9c-0.5-0.5-1.1-0.8-1.9-0.8 c-1.3 0-2.2 1-2.2 2.4v0c0 1.3 0.9 2.4 2.2 2.4c0.8 0 1.3-0.3 1.9-0.9l0.8 0.8c-0.7 0.7-1.5 1.2-2.7 1.2 C105 47.5 103.5 45.9 103.5 44z"/>
	<path class="st0" d="M110.7 44L110.7 44c0-1.9 1.4-3.5 3.5-3.5s3.5 1.6 3.5 3.4v0c0 1.9-1.4 3.4-3.5 3.4S110.7 45.9 110.7 44z M116.5 44L116.5 44c0-1.3-0.9-2.4-2.3-2.4S112 42.7 112 44v0c0 1.3 0.9 2.4 2.3 2.4S116.5 45.3 116.5 44z"/>
	<path class="st0" d="M119.5 40.7h1.1l3.6 4.6v-4.6h1.2v6.7h-1l-3.7-4.7v4.7h-1.2V40.7z"/>
	<path class="st0" d="M126.8 40.7h1.3l2 5.1l2-5.1h1.3l-2.8 6.7h-1L126.8 40.7z"/>
	<path class="st0" d="M134.9 40.7h4.9v1h-3.8v1.7h3.3v1h-3.3v1.8h3.8v1h-5V40.7z"/>
	<path class="st0" d="M141.7 40.7h3c0.8 0 1.5 0.2 1.9 0.7c0.4 0.4 0.6 0.9 0.6 1.4v0c0 1.1-0.7 1.8-1.6 2l1.8 2.5H146l-1.6-2.3 h-1.5v2.3h-1.2V40.7z M144.6 44c0.8 0 1.4-0.4 1.4-1.1v0c0-0.7-0.5-1.1-1.4-1.1h-1.7V44H144.6z"/>
	<path class="st0" d="M148.5 46.4l0.7-0.8c0.6 0.6 1.3 0.9 2.1 0.9c0.7 0 1.2-0.3 1.2-0.8v0c0-0.5-0.3-0.7-1.5-1 c-1.4-0.3-2.2-0.8-2.2-2v0c0-1.1 1-1.9 2.3-1.9c1 0 1.7 0.3 2.4 0.8l-0.6 0.9c-0.6-0.4-1.2-0.7-1.8-0.7c-0.7 0-1.1 0.4-1.1 0.8v0 c0 0.5 0.3 0.7 1.6 1c1.4 0.3 2.1 0.8 2.1 2v0c0 1.2-1 2-2.4 2C150.3 47.4 149.3 47.1 148.5 46.4z"/>
	<path class="st0" d="M157.6 40.6h1.1l2.9 6.7h-1.2l-0.7-1.6h-3.2l-0.7 1.6h-1.2L157.6 40.6z M159.3 44.7l-1.2-2.7l-1.1 2.7H159.3z"/>
	<path class="st0" d="M164 41.8h-2.1v-1.1h5.4v1.1h-2.1v5.6H164V41.8z"/>
	<path class="st0" d="M168.9 40.7h1.2v6.7h-1.2V40.7z"/>
	<path class="st0" d="M172 44L172 44c0-1.9 1.4-3.5 3.5-3.5c2 0 3.5 1.6 3.5 3.4v0c0 1.9-1.4 3.4-3.5 3.4S172 45.9 172 44z M177.7 44L177.7 44c0-1.3-0.9-2.4-2.3-2.4s-2.2 1.1-2.2 2.4v0c0 1.3 0.9 2.4 2.3 2.4C176.8 46.4 177.7 45.3 177.7 44z"/>
	<path class="st0" d="M180.7 40.7h1.1l3.6 4.6v-4.6h1.2v6.7h-1l-3.7-4.7v4.7h-1.2V40.7z"/>
	<path class="st0" d="M191.6 44L191.6 44c0-1.9 1.4-3.5 3.4-3.5c1.2 0 2 0.4 2.6 1l-0.8 0.9c-0.5-0.5-1.1-0.8-1.9-0.8 c-1.3 0-2.2 1-2.2 2.4v0c0 1.3 0.9 2.4 2.2 2.4c0.8 0 1.3-0.3 1.9-0.9l0.8 0.8c-0.7 0.7-1.5 1.2-2.7 1.2 C193 47.5 191.6 45.9 191.6 44z"/>
	<path class="st0" d="M198.8 44L198.8 44c0-1.9 1.4-3.5 3.5-3.5c2 0 3.5 1.6 3.5 3.4v0c0 1.9-1.4 3.4-3.5 3.4S198.8 45.9 198.8 44z M204.6 44L204.6 44c0-1.3-0.9-2.4-2.3-2.4S200 42.7 200 44v0c0 1.3 0.9 2.4 2.3 2.4C203.6 46.4 204.6 45.3 204.6 44z"/>
	<path class="st0" d="M207.6 40.7h1.2l2 3.2l2-3.2h1.2v6.7H213v-4.8l-2.1 3.1h0l-2.1-3.1v4.8h-1.2V40.7z"/>
	<path class="st0" d="M216.2 40.7h2.6c1.6 0 2.5 0.9 2.5 2.2v0c0 1.5-1.2 2.3-2.7 2.3h-1.3v2.1h-1.2V40.7z M218.8 44.1 c0.9 0 1.4-0.5 1.4-1.2v0c0-0.8-0.6-1.2-1.4-1.2h-1.4v2.4H218.8z"/>
	<path class="st0" d="M224.7 40.6h1.1l2.9 6.7h-1.2l-0.7-1.6h-3.2l-0.7 1.6h-1.2L224.7 40.6z M226.3 44.7l-1.2-2.7l-1.1 2.7H226.3z"/>
	<path class="st0" d="M230.2 40.7h1.1l3.6 4.6v-4.6h1.2v6.7h-1l-3.7-4.7v4.7h-1.2V40.7z"/>
	<path class="st0" d="M240.1 44.7l-2.6-4h1.4l1.9 2.9l1.9-2.9h1.3l-2.6 4v2.7h-1.2V44.7z"/>
</g>
</svg>
